<svg xmlns="http://www.w3.org/2000/svg" viewBox="0 0 109.5 124.5" fill="#fff">
  <path d="M95.9 23.9c-.1-.6-.6-1-1.1-1-.5 0-10.2-.2-10.2-.2s-6.7-6.5-7.5-7.2c-.8-.8-2.3-.5-2.9-.4-.1 0-1.5.5-4 1.2-2.4-6.9-6.6-13.2-14-13.2h-.7c-2.1-2.8-4.7-4-6.9-4C26.6-.9 15.2 35 11.3 52.8c-10.2 3.2-17.4 5.4-18.3 5.7-5.7 1.8-5.9 2-6.6 7.4C-14.3 71.3-26.3 170.5-26.3 170.5l107.8 18.5 46.3-11.6S96 24.5 95.9 23.9zM66.7 19l-7.3 2.3V19c0-6-.8-10.8-2.1-14.4 5.1.7 8.5 6.5 9.4 14.4zm-15 4.6l-15.7 4.9c1.5-5.8 4.4-11.6 7.9-15.4 1.3-1.4 3.2-3 5.4-3.9 2.2 4.4 2.5 10.7 2.4 14.4zm-10.1-19c1.8 0 3.2.6 4.6 1.8-6.5 3.1-13.4 10.8-16.3 26.3l-12.4 3.8c3.4-11.7 11.6-31.9 24.1-31.9z"/>
</svg>
