<svg xmlns="http://www.w3.org/2000/svg" viewBox="0 0 300 120" fill="#fff">
  <path d="M60 10c-8 0-14 2.4-19 7.2-5 4.8-8.4 11.2-10 19.2L10 131.2 0 26.4c-.8-4-1.2-7.2-1.2-9.6 0-5.2 1.6-9.2 4.8-12.4C6.8 1.6 11.2 0 16.8 0c4.8 0 8.8 1.2 11.6 3.6 3.2 2.4 5.2 6 6.4 10.8L55 119.2l22.8-104.8c1.2-4.8 3.2-8.4 6.4-10.8C87.2 1.2 91.2 0 96 0c4.8 0 8.8 1.2 11.6 3.6 3.2 2.4 5.2 6 6.4 10.8l22.8 104.8L157.6 14c1.2-4.8 3.2-8.4 6-10.8C166.4 1.2 170.4 0 175.2 0c5.6 0 10 1.6 13.2 4.8 3.2 3.2 4.8 7.2 4.8 12.4 0 2.4-.4 5.6-1.2 9.6L171.2 131.2 150 36.4c-1.6-8-5-14.4-10-19.2-5-4.8-11-7.2-19-7.2-8 0-14 2.4-19 7.2-5 4.8-8.4 11.2-10 19.2L72 131.2 51.2 26.4c-1.6-8-5-14.4-10-19.2C36.2 2.4 30.2 0 22.2 0h48zm180 0c-8 0-14 3.2-18 9.6-4 6.4-6 15.2-6 26.4v88c0 11.2 2 20 6 26.4 4 6.4 10 9.6 18 9.6s14-3.2 18-9.6c4-6.4 6-15.2 6-26.4V46c0-11.2-2-20-6-26.4-4-6.4-10-9.6-18-9.6zm54 0c-4 0-7.6 1.2-10.8 3.6-3.2 2.4-5.6 5.6-7.2 9.6L246 80l-30-56.8c-1.6-4-4-7.2-7.2-9.6-3.2-2.4-6.8-3.6-10.8-3.6-4.8 0-8.8 1.6-12 4.8-3.2 3.2-4.8 6.8-4.8 11.2 0 2.4.8 5.2 2.4 8.4l48 104.8-48 104.8c-1.6 3.2-2.4 6-2.4 8.4 0 4.4 1.6 8 4.8 11.2 3.2 3.2 7.2 4.8 12 4.8 4 0 7.6-1.2 10.8-3.6 3.2-2.4 5.6-5.6 7.2-9.6L246 178.4l30 66.4c1.6 4 4 7.2 7.2 9.6 3.2 2.4 6.8 3.6 10.8 3.6 4.8 0 8.8-1.6 12-4.8 3.2-3.2 4.8-6.8 4.8-11.2 0-2.4-.8-5.2-2.4-8.4l-48-104.8L308.4 24c1.6-3.2 2.4-6 2.4-8.4 0-4.4-1.6-8-4.8-11.2C302.8 1.6 298.8 0 294 0z"/>
</svg>
