<svg xmlns="http://www.w3.org/2000/svg" viewBox="0 0 122.5 122.5" fill="#fff">
  <path d="M8.7 61.3c0 20.8 12.1 38.8 29.6 47.3L13 63.7c-2.8-6.9-4.3-14.4-4.3-22.4 0-1 0-2 .1-3zm90.3-2.7c0-6.5-2.3-10.9-4.3-14.4-2.7-4.3-5.2-8-5.2-12.3 0-4.8 3.7-9.3 8.9-9.3h.7c-9.4-8.6-21.9-13.9-35.6-13.9-18.4 0-34.6 9.5-44 23.8 1.2 0 2.4.1 3.4.1 5.5 0 14.1-.7 14.1-.7 2.9-.2 3.2 4 .4 4.4 0 0-2.9.3-6.1.5l19.4 57.8 11.7-35-8.3-22.8c-2.9-.2-5.6-.5-5.6-.5-2.9-.2-2.5-4.6.3-4.4 0 0 8.8.7 13.9.7 5.5 0 14.1-.7 14.1-.7 2.9-.2 3.2 4 .4 4.4 0 0-2.9.3-6.1.5L84 77.7l5.3-17.8c2.3-7.4 4.1-12.7 4.1-17.3zM61.3 66l-16.1 46.8c4.8 1.4 9.9 2.2 15.2 2.2 6.3 0 12.3-1.1 17.9-3.1-.1-.2-.3-.5-.4-.7L61.3 66zm45.9-30.5c.1.6.1 1.3.1 2 0 5.9-1.1 12.5-4.4 20.8l-17.6 50.9c17.1-10 28.6-28.6 28.6-49.9 0-9.3-2.5-18-6.7-25.8zM61.3 0C27.4 0 0 27.4 0 61.3c0 33.8 27.4 61.3 61.3 61.3 33.8 0 61.3-27.4 61.3-61.3C122.5 27.4 95.1 0 61.3 0zm0 119.7c-32.2 0-58.5-26.2-58.5-58.5S29 2.8 61.3 2.8s58.5 26.2 58.5 58.5-26.3 58.4-58.5 58.4z"/>
</svg>
